<svg width="8" height="12" viewBox="0 0 8 12" fill="none" xmlns="http://www.w3.org/2000/svg">
<path d="M4.03574 11.9488C4.1719 11.9439 4.32927 11.892 4.42852 11.8057L7.66599 8.9873C7.85153 8.79632 7.92812 8.43011 7.7136 8.21665C7.50232 8.0064 7.09255 8.01266 6.88043 8.22211L4.60705 10.2038V1.20374C4.60705 0.911896 4.35126 0.675293 4.03574 0.675293C3.72021 0.675293 3.46443 0.911896 3.46443 1.20374V10.2038L1.19105 8.22211C0.995759 8.04179 0.571576 8.00846 0.357874 8.21665C0.144192 8.42479 0.212461 8.80416 0.405501 8.9873L3.64296 11.8057C3.75375 11.9021 3.88374 11.9491 4.03574 11.9488Z" fill="#818A96"/>
</svg>
